# xmcd CD database file
#
# Track frame offsets:
#	150
#	16765
#	33600
#	53045
#	70438
#	90275
#	109613
#	129930
#	146045
#	164675
#
# Disc length: 2486 seconds
#
# Revision: 0
# Processed by: cddbd v1.5.1PL0 Copyright (c) Steve Scherf et al.
# Submitted via: CDex 1.51
#
DISCID=8109b40a
DTITLE=NG3 - The Magic Garden Of Sweet NG3 Music
DYEAR=1995
DGENRE=Rock
TTITLE0=Orange
TTITLE1=Message From Our Old Country
TTITLE2=Suzanne
TTITLE3=Cosmic Circle
TTITLE4=Holiday In Dominican Republic
TTITLE5=Pictures Of Matchstick Fans
TTITLE6=Hello Susie
TTITLE7=Dr. Jekyll
TTITLE8=Saturday's Children
TTITLE9=Boogie Booty
EXTD=YEAR: 1995
EXTT0=
EXTT1=
EXTT2=
EXTT3=
EXTT4=
EXTT5=
EXTT6=
EXTT7=
EXTT8=
EXTT9=
PLAYORDER=
